PathFileType	4	(X/Y/Z)	C:\Users\u0088756\Documents\PostDoc\Conferences\Amsterdam_2018\Resources\Resources\MoCap\subject01_walk1_m.trc
DataRate	CameraRate	NumFrames	NumMarkers	Units	OrigDataRate	OrigDataStartFrame	OrigNumFrames
60.000000	60.000000	10	41	m	60.000000	95	151
Frame#	Times		R.ASIS		L.ASIS		V.Sacral		R.Thigh.Upper		R.Thigh.Front		R.Thigh.Rear		L.Thigh.Upper		L.Thigh.Front		L.Thigh.Rear		R.Shank.Upper		R.Shank.Front		R.Shank.Rear		L.Shank.Upper		L.Shank.Front		L.Shank.Rear		R.Heel		R.Midfoot.Sup		R.Midfoot.Lat		R.Toe.Tip		L.Heel		L.Midfoot.Sup		L.Midfoot.Lat		L.Toe.Tip		Sternum		R.Acromium		L.Acromium		R.Bicep		L.Bicep		R.Elbow		L.Elbow		R.Wrist.Med		R.Wrist.Lat		L.Wrist.Med		L.Wrist.Lat		R.Toe.Lat		R.Toe.Med		L.Toe.Lat		L.Toe.Med		R.Temple		L.Temple		Top.Head
			X1	Y1	Z1	X2	Y2	Z2	X3	Y3	Z3	X4	Y4	Z4	X5	Y5	Z5	X6	Y6	Z6	X7	Y7	Z7	X8	Y8	Z8	X9	Y9	Z9	X10	Y10	Z10	X11	Y11	Z11	X12	Y12	Z12	X13	Y13	Z13	X14	Y14	Z14	X15	Y15	Z15	X16	Y16	Z16	X17	Y17	Z17	X18	Y18	Z18	X19	Y19	Z19	X20	Y20	Z20	X21	Y21	Z21	X22	Y22	Z22	X23	Y23	Z23	X24	Y24	Z24	X25	Y25	Z25	X26	Y26	Z26	X27	Y27	Z27	X28	Y28	Z28	X29	Y29	Z29	X30	Y30	Z30	X31	Y31	Z31	X32	Y32	Z32	X33	Y33	Z33	X34	Y34	Z34	X35	Y35	Z35	X36	Y36	Z36	X37	Y37	Z37	X38	Y38	Z38	X39	Y39	Z39	X40	Y40	Z40	X41	Y41	Z41

95	1.567	609.98	1088.6	125.74	621.7	1070.2	-133.56	418.28	1072.7	-0.71381	652.21	773.74	195.66	740.57	729.8	116.99	682.19	655.08	198.19	577.57	763.61	-176.35	664.09	729.85	-105.31	578.09	653.84	-154.27	608.73	527.61	184.07	648.02	446.45	142.72	561.69	454.79	190.96	564.04	439.02	-141.22	607.91	389.51	-85.462	542.91	396.55	-147.3	311.44	279.9	82.908	421.68	181.44	77.403	384.45	181.69	176.12	495.02	63.465	136.08	456.73	76.493	-44.581	627.01	75.608	-13.048	612.53	68.568	-110.75	738.64	49.994	-41.552	634.91	1388.3	-19.724	520.25	1483.1	179.64	580.19	1490.7	-234.92	514.22	1286.2	235.87	624.66	1253.2	-250.62	462.46	1188.2	266.06	590.17	1151.8	-289.06	581.82	946.43	282.8	535.84	938.95	330.11	722.17	941.92	-224.38	684.92	923.77	-286.52	424.83	101.43	202.47	463.09	96.449	96.535	675.2	42.316	-117.9	688.42	51.116	-16.914	692.51	1615	59.262	709.85	1617.5	-79.231	695.15	1792.2	-5.3309
96	1.583	608.6	1089.6	123.66	619.07	1069.7	-135.74	416.24	1073.2	-0.78374	659.2	778.52	195.24	745.91	735.65	113.97	692.23	660.57	196.83	567.94	763.84	-177.05	656.97	729.19	-107.9	567.08	654.52	-155.13	621.89	528.61	184.58	665.77	449.51	140.63	578.25	452.28	189.94	548.07	438.98	-142.35	591.1	389.01	-85.378	526.39	396.76	-147.45	339.29	261.84	83.515	456.55	171.92	76.888	420.78	169.08	176.02	538.6	59.326	134.42	437.61	76.719	-44.68	607.68	75.133	-12.302	593.38	68.786	-110.8	719.78	49.639	-41.714	633.82	1388.9	-19.949	518.19	1483.1	178.86	579.68	1492.3	-235.56	509.25	1285.8	235.12	625.96	1255.8	-251.11	456.4	1189.1	264.06	593.03	1152.7	-289.08	574.67	946.92	281.45	527.95	939.45	328.24	731.7	947.71	-222.21	692.64	928.33	-283.52	467.23	92.283	201.79	504	90.076	95.368	656.11	42.097	-118.12	669.59	50.868	-17.014	692.1	1616.3	59.021	708.23	1618.6	-78.826	692.96	1793	-5.4762
97	1.6	607.88	1090.7	122.27	618.59	1068.9	-138.11	413.97	1073.2	-0.75386	665.26	782.28	193.53	749.28	741.27	111.59	699.84	665.3	195.19	558.44	763.94	-177.92	647.76	727.17	-109.77	554.67	654.56	-155.42	633.92	527.7	182.14	683.5	452.27	139.73	597.45	448.79	188.46	532.39	439.56	-142.49	575.79	389.21	-85.653	510.26	396.99	-147.68	369.3	241.22	84.221	493.43	161.06	76.576	459.2	155.16	176.14	584.28	55.337	133.49	418.67	76.943	-44.96	588.38	74.649	-11.042	574.06	69.037	-110.95	700.95	49.288	-41.831	632.84	1389	-20.078	517.63	1482.8	178.64	579.24	1493	-235.54	504.74	1286.1	233.35	627.3	1257	-251.83	450.71	1189.5	262.14	595.51	1153.3	-290.43	567.2	947.24	280.27	520.22	939.01	326.4	741.05	954.72	-218.62	705.67	932.59	-282.5	512	81.901	200.87	546.27	83.284	95.146	637.07	41.936	-118.39	650.57	50.479	-17.117	690.43	1616.5	59.394	707.13	1619.1	-78.637	690.92	1793.3	-5.029
98	1.617	605.54	1090.3	120.63	614.81	1067.9	-139.29	411.51	1073	-0.79608	667.16	785.08	192.03	752.21	745.86	108.87	704.87	668.44	193.01	549.28	763.87	-178.94	635.71	725.02	-110.36	543.94	654.51	-156.36	643.68	525.97	180.65	699.25	455.35	137.66	612.86	444.71	187.41	516.83	439.38	-142.91	560.3	389.17	-86.747	494.48	397.23	-147.89	401.57	218.51	84.746	532.24	149.49	76.637	499.25	140.72	176.49	631.76	52.233	133.73	399.98	77.136	-45.316	569.17	74.164	-9.6293	554.78	69.049	-111.22	682.02	48.907	-41.936	632.02	1388	-21.103	516.54	1481.1	178.39	578.51	1493.3	-236.1	501.39	1285.5	232.2	628.1	1257.6	-252.18	445.43	1189.5	260.29	596.97	1153.2	-290.58	561.76	946.38	279.11	513.24	938.1	324.1	749.96	962.07	-217.23	715.06	936.64	-278.57	556.87	72.067	200.87	590.45	76.72	95.962	618.11	41.791	-118.66	631.31	49.953	-17.217	689.85	1616.2	59.517	706.36	1619.1	-78.621	688.99	1793	-4.6588
99	1.633	603.93	1089.1	119.52	612.93	1065.3	-140.17	409.02	1072.5	-1.0218	668.46	785.94	190.88	754.42	749.61	106.44	709.92	670.32	191.07	540.59	763.6	-179.92	629.16	722.97	-112.66	532.5	654.15	-155.76	650.88	524.22	179	713.61	456.99	136.65	628.72	439.94	186.61	501.43	438.84	-142.59	544.94	387.9	-86.578	478.96	397.45	-148.02	436.25	194.38	84.878	572.82	137.93	77.211	540.71	126.49	177.16	680.54	50.623	135.45	381.53	77.232	-45.436	550	73.686	-9.3932	536	68.175	-111.53	662.92	48.513	-42.073	630.03	1386.6	-21.546	514.89	1480.2	178.16	577.78	1493.3	-235.54	497.7	1284.1	231.18	628.44	1257.9	-252.85	440.59	1188.9	258.54	598.43	1153.5	-291.02	553.33	944.83	276.83	507.52	937.28	321.96	757.67	967.93	-214.17	724.19	940.82	-275.97	604.51	63.438	202.02	636.68	71.039	97.808	599.22	41.654	-118.95	611.95	49.432	-17.327	689.04	1615.4	60.026	706.5	1618.5	-77.817	687.03	1792.7	-3.3751
100	1.65	601.02	1087	118.73	610.71	1063.8	-140.85	406.69	1071.7	-1.3799	669.27	787.17	189.5	753.9	750.72	103.65	711.44	671.98	189.56	532.39	763.11	-180.73	619.98	720.62	-114.2	521.87	653.42	-156.33	658.35	519.31	176.14	724.82	457.27	135.18	642.05	433.71	184.92	486.53	438.85	-142.72	529.39	387.53	-86.973	463.67	397.66	-148.13	473.51	169.79	84.601	614.89	127.19	78.338	583.39	113.17	178.2	729.98	51.04	138.67	363.14	77.243	-45.128	530.56	73.16	-12.979	518.31	65.461	-111.78	643.75	48.172	-42.238	629.29	1385.2	-21.353	513.53	1478.3	178.43	576.53	1492.3	-234.9	495.71	1282.7	230.38	628.46	1257.6	-253.1	436.31	1187.8	257.01	599.51	1152.7	-291.72	550.34	943.79	275.97	502.66	935.68	319.85	765.4	974.45	-211.41	732.78	945.19	-273.57	653.95	57.635	205.41	684.36	66.858	100.6	580.41	41.593	-119.28	592.76	49.096	-17.497	688.03	1614.5	60.662	705.08	1618	-77.63	684.91	1791.7	-2.4139
101	1.667	599.83	1085.6	118.71	608.72	1061.8	-140.8	404.72	1070.6	-1.6996	668.57	786.81	188.3	753.89	750.65	100.72	711.66	671.29	186.33	524.66	762.33	-181.26	612.41	718.14	-114.12	509.96	653	-155.78	660.08	514.17	174.75	735.99	457.22	134.66	654.73	426.49	183.21	471.52	438.9	-142.64	514.43	387.34	-87.926	448.58	397.9	-148.29	513.24	145.9	84.11	657.99	118.09	79.924	627.02	101.51	179.64	779.35	54.006	142.97	344.56	77.334	-44.586	510.25	72.376	-23.18	502.04	60.207	-111.94	624.66	47.938	-42.414	628.69	1383.1	-20.988	513.6	1476.3	178.74	575.64	1490.8	-234.41	492.94	1280.6	229.78	628.44	1257.1	-252.87	432.73	1186.2	255.79	601.37	1151.3	-291.83	545.89	941.45	274.56	497.75	933.91	317.96	771.42	980.39	-208.95	741.47	948.33	-270.1	700.21	53.761	208.59	732.61	64.827	104.08	561.64	41.676	-119.62	573.92	49.024	-17.767	687.47	1613	61.449	704.9	1617.3	-76.695	682.78	1790.3	-1.3248
102	1.683	597.13	1082.3	118.09	606.76	1059.2	-140.86	403.17	1069	-1.8491	665.92	784.31	186.77	750.52	748.85	98.148	709.58	669.65	184.84	517.36	761.22	-181.4	603.81	715.32	-114.72	502.31	652.44	-156.91	667.72	505.81	172.25	744.78	456.88	132.74	665.75	418.5	181.7	457.73	439.07	-142.96	499.54	386.85	-87.282	433.67	398.18	-148.58	554.9	123.86	83.787	701.4	111.4	81.766	671.22	92.242	181.39	827.87	60.069	147.55	325.68	77.661	-44.103	488.97	71.273	-38.715	486.58	53.327	-112.06	605.75	47.807	-42.636	628.29	1380.6	-20.667	512.86	1473.7	179.41	575.53	1489.1	-233.89	490.92	1278.6	229.15	626.49	1256.1	-251.99	429.93	1184.1	254.99	602.04	1150	-292.22	543.35	939.31	273.09	494.34	931.05	316.62	776.67	985.53	-206.83	748.05	951.96	-267.57	748.66	51.818	212.42	780.52	65.686	107.76	542.73	41.8	-119.96	555.39	49.128	-18.132	685.66	1611.5	62.466	704.99	1616.1	-75.336	680.54	1787.6	-0.04241
103	1.7	596.3	1078.9	118.68	605.72	1055.9	-140.98	401.98	1067	-1.8171	661.28	779.96	184.36	746.06	744.64	95.877	704.96	665.44	183.3	510.45	759.81	-181.15	595.9	712.9	-114.56	493.65	651.96	-157.35	670.33	496.89	169.94	752.31	455.49	130.42	677.93	409.96	180.11	443.28	438.82	-143.92	484.68	386.27	-88.032	418.86	398.53	-149.02	597.61	104.64	84.16	744.19	107.73	83.593	715.46	86.095	183.34	874.66	69.763	151.4	306.68	78.206	-43.76	468.07	70.391	-51.396	469.97	48.226	-112.19	586.96	47.701	-42.958	628.24	1377.8	-19.598	512.52	1470.8	179.75	575.18	1487.1	-232.84	488.78	1275.5	229.4	627.54	1253.7	-252.26	427.87	1181.5	254.59	602.68	1147.9	-292.55	540.53	936.62	271.62	491.19	927.99	314.77	780.29	988.94	-204.16	753.87	954.37	-264.59	795.8	54.634	215.3	827.18	70.168	110.98	523.49	41.752	-120.23	536.93	49.245	-18.534	687.32	1609.3	63.864	703.89	1614.5	-74.281	677.75	1786.6	1.5206
104	1.717	594.37	1075.6	119.11	603.8	1054.2	-140.59	401.08	1064.5	-1.6505	655.81	774.41	181.67	741.21	739.48	93.375	701.01	661.22	180.77	503.88	758.26	-180.67	588.05	710.39	-114.12	485.04	650.81	-157.98	671.57	488.2	168.47	757.99	454.49	128.53	688.48	401.93	179.37	430.43	439.08	-144.61	470.48	386.03	-89.37	404.15	398.97	-149.6	640.21	88.871	85.727	785.25	107.37	85.123	758.94	83.595	185.31	918.74	83.372	153.59	287.77	78.882	-43.539	449.32	70.494	-52.516	450.41	48.404	-112.36	568.16	47.533	-43.391	627.6	1374.8	-19.015	513.01	1467.5	180.55	575.13	1484.4	-231.9	487.11	1272.1	229.44	626.62	1252.1	-251.71	426.39	1178.4	254.51	601.94	1145.4	-291.95	537.45	932.63	270.75	489.62	924.72	314.43	785.22	993.05	-201.64	758.56	956.56	-261.76	842.11	60.367	217.94	871.5	78.702	113.05	504.07	41.491	-120.41	518.34	49.259	-18.899	685.86	1607	65.108	704.16	1613.1	-72.155	675.13	1783.5	3.8256
